<svg version="1.1" id="_x32_" xmlns="http://www.w3.org/2000/svg" xmlns:xlink="http://www.w3.org/1999/xlink" 
	 width="800px" height="800px" viewBox="0 0 512 512"  xml:space="preserve">
<g>
	<path d="M0,16v480h512V16H0z M420,56h56v32h-56V56z M324,56h56v32h-56V56z M228,56h56v32h-56V56z M132,56h56v32h-56V56
		z M36,56h56v32H36V56z M92,456H36v-32h56V456z M188,456h-56v-32h56V456z M284,456h-56v-32h56V456z M380,456h-56v-32h56V456z
		 M476,456h-56v-32h56V456z M476.688,392h-440V120h440V392z"/>
</g>
</svg>